<?xml version="1.0" encoding="UTF-8"?>
<svg id="katman_1" data-name="katman 1" xmlns="http://www.w3.org/2000/svg" viewBox="0 0 971.43 161">
  <defs>
    <style>
      .cls-1 {
        fill: #181e47;
      }

      .cls-2 {
        fill: #c852fc;
      }

      .cls-3 {
        fill: #45d5ef;
      }

      .cls-4 {
        fill: #8536ff;
      }

      .cls-5 {
        fill: #f7921c;
      }
    </style>
  </defs>
  <g id="Layer_2" data-name="Layer 2">
    <g id="Layer_1-2" data-name="Layer 1-2">
      <path class="cls-1" d="M208.16,46.24c10.58,0,19.47,3.45,26.6,10.35s10.65,15.48,10.65,25.76-3.52,18.85-10.65,25.75-16,10.35-26.6,10.35h-17.25v36.11h-21.69V46.24h38.94ZM207.7,98.06c4.13.07,8.11-1.56,11-4.52,2.92-2.98,4.5-7.02,4.37-11.19.13-4.19-1.45-8.26-4.37-11.27-2.9-2.93-6.88-4.54-11-4.45h-16.79v31.43h16.79Z"/>
      <path class="cls-1" d="M304.92,80.74c6.05,5.44,9,12.57,9,21.23v52.59h-19.43v-4.83c-5.35,4.52-12.16,6.92-19.16,6.74-8.21,0-15-2.53-20.55-7.66-10.52-9.7-11.19-26.09-1.49-36.61.48-.52.97-1.01,1.49-1.49,5.52-5.14,12.34-7.67,20.55-7.67,6.58-.13,13.02,1.99,18.24,6v-6.9c0-7.36-4.75-12.11-12.11-12.11-6.44,0-10.73,3.38-11.58,8.82h-20.77c.97-7.44,4.75-14.22,10.58-18.94,5.83-4.83,13.18-7.28,22.08-7.28,9.42-.02,17.09,2.66,23.15,8.11ZM289.74,137.23c4.13-2.97,5.07-8.73,2.09-12.86-.58-.81-1.29-1.51-2.09-2.09-2.67-2.07-5.97-3.15-9.35-3.06-3.34-.13-6.61.96-9.2,3.06-2.32,1.77-3.68,4.52-3.68,7.44-.02,2.96,1.37,5.75,3.75,7.51,2.58,2.08,5.82,3.17,9.13,3.07,3.38.12,6.69-.97,9.35-3.07Z"/>
      <path class="cls-1" d="M346.1,86.26c6.2-8.67,13.95-13,23.38-13v21.04c-14.8,0-23.38,8.51-23.38,22.08v38.18h-20.39v-80h20.39v11.7Z"/>
      <path class="cls-1" d="M451.02,154.56h-26l-28.4-31.89v31.89h-20.39V41.49h20.39v63.62l27.52-30.58h25.68l-34.34,39.71,35.54,40.32Z"/>
      <path class="cls-1" d="M524.28,46.24c10.58,0,19.47,3.45,26.6,10.35s10.66,15.48,10.66,25.76-3.52,18.85-10.66,25.75-16,10.35-26.6,10.35h-17.26v36.11h-21.7V46.24h38.96ZM523.82,98.06c4.13.07,8.11-1.56,11-4.52,2.92-2.98,4.5-7.02,4.37-11.19.13-4.19-1.44-8.26-4.37-11.27-2.9-2.93-6.88-4.54-11-4.45h-16.8v31.43h16.8Z"/>
      <path class="cls-1" d="M609.25,144.44c-8.21-8.05-12.33-18.05-12.35-30s4.1-21.91,12.35-29.9c8.2-8,18.45-12,30.74-12,11.11,0,20.62,3.37,28.51,10,7.78,6.49,12.79,15.7,14,25.76h-21.2c-1.18-4.63-3.88-8.73-7.67-11.65-3.94-2.88-8.73-4.38-13.61-4.26-11.93-.22-21.78,9.28-22,21.21,0,.31,0,.63,0,.94-.29,11.94,9.15,21.86,21.09,22.16.3,0,.61,0,.91,0,4.92.1,9.73-1.47,13.64-4.45,3.85-2.83,6.57-6.93,7.67-11.58h21.23c-1.21,10.06-6.22,19.28-14,25.76-7.89,6.67-17.4,10-28.51,10-12.33.04-22.6-3.94-30.8-11.99Z"/>
      <path class="cls-1" d="M743.57,80.74c6.05,5.44,9,12.57,9,21.23v52.59h-19.43v-4.83c-5.34,4.51-12.14,6.91-19.12,6.74-8.21,0-15-2.53-20.55-7.66-10.52-9.7-11.19-26.09-1.49-36.61.48-.52.97-1.01,1.49-1.49,5.52-5.14,12.34-7.67,20.55-7.67,6.58-.13,13.02,1.99,18.24,6v-6.9c0-7.36-4.75-12.11-12.11-12.11-6.44,0-10.73,3.38-11.58,8.82h-20.81c.97-7.44,4.75-14.22,10.58-18.94,5.82-4.83,13.18-7.28,22.07-7.28,9.43-.02,17.1,2.66,23.16,8.11ZM728.39,137.23c4.13-2.97,5.07-8.73,2.09-12.86-.58-.81-1.29-1.51-2.09-2.09-2.67-2.07-5.97-3.15-9.35-3.06-3.34-.13-6.61.96-9.2,3.06-2.32,1.77-3.68,4.52-3.68,7.44-.02,2.96,1.37,5.75,3.75,7.51,2.57,2.08,5.8,3.17,9.11,3.07,3.39.12,6.71-.97,9.37-3.07Z"/>
      <path class="cls-1" d="M767.88,148.88c-5.5-4.48-8.66-11.23-8.58-18.32h20.62c-.04,2.44.99,4.77,2.83,6.37,1.8,1.76,4.23,2.73,6.75,2.68,5,0,8.89-3.22,8.89-7.21,0-4.37-4.45-7.74-13.34-10-16.48-3.91-24.68-12.26-24.6-25.14,0-7.67,2.75-13.72,8.35-18.09s12.34-6.52,20.39-6.52,15,2.38,20.55,7.13,8.28,10.54,8.28,17.44h-20.55c0-4.37-3.6-7.82-8.43-7.82-4.37,0-8,3-8,6.59,0,4.37,4.68,7.74,13.95,10,16.1,4.07,24.15,12.35,24.22,24.69,0,8-2.84,14.28-8.51,18.85-5.74,4.6-12.8,6.9-21.31,6.9s-15.76-2.49-21.51-7.55Z"/>
      <path class="cls-1" d="M830.83,148.88c-5.5-4.48-8.66-11.22-8.59-18.32h20.62c-.04,2.44,1,4.77,2.84,6.37,1.8,1.76,4.23,2.73,6.75,2.68,5,0,8.89-3.22,8.89-7.21,0-4.37-4.45-7.74-13.34-10-16.48-3.91-24.68-12.26-24.61-25.14,0-7.67,2.76-13.72,8.36-18.09s12.34-6.52,20.39-6.52,15,2.38,20.54,7.13,8.28,10.58,8.28,17.48h-20.54c0-4.37-3.6-7.82-8.43-7.82-4.37,0-8.05,3-8.05,6.59,0,4.37,4.67,7.74,14,10,16.1,4.07,24.15,12.35,24.22,24.69,0,8-2.84,14.28-8.51,18.85-5.75,4.6-12.8,6.9-21.31,6.9s-15.76-2.53-21.51-7.59Z"/>
      <path class="cls-1" d="M928.43,156.47c-12.27,0-22.54-4-30.74-12s-12.34-18-12.34-30,4.14-21.85,12.34-29.9,18.47-12,30.74-12,22.46,4,30.66,12,12.34,18,12.34,29.9-4.14,21.92-12.34,30-18.47,12-30.66,12ZM928.43,136.7c5.89.14,11.58-2.17,15.71-6.37,4.13-4.2,6.37-9.9,6.21-15.79.16-5.89-2.08-11.59-6.21-15.79-8.5-8.68-22.43-8.82-31.11-.32-4.32,4.23-6.71,10.06-6.6,16.11-.31,11.93,9.12,21.85,21.05,22.16.32,0,.63,0,.95,0Z"/>
      <path class="cls-5" d="M587.83,70.24c-.93-.91-1.95-1.72-3.06-2.4-.93-.57-1.94-1.01-3-1.31-.71-.21-1.45-.32-2.19-.33h-.39c-.37,0-.75.02-1.12.07-2.58.41-4.95,1.66-6.75,3.56h0c-10.3-22.83-6.47-28.83,10-45.09-1,6.77,6.87,18.52,10.51,26.08s-.52,16.05-4,19.42Z"/>
      <path class="cls-1" d="M584.14,154.64c-.18,2.77-2.4,4.96-5.17,5.1-.17.01-.33.01-.5,0h-.29c-.53-.03-1.05-.14-1.54-.32-2.34-.79-3.97-2.91-4.13-5.38-.12-2.35-.29-5.42-.49-9-2.33-41.67-3.09-65.52.29-69.89,1.53-2.15,4-3.44,6.64-3.44h.33c4.28.16,8.47,3.52,8.8,6,.94,7.78-3.89,76.21-3.94,76.93Z"/>
      <path class="cls-4" d="M137.02,104.65c-5.83,19.3-23.58,32.54-43.74,32.62h-14.38c-8.52-.01-15.96,5.79-18,14.07l-2.64,9.66h-22l3.93-14.83c4.39-17.8,20.37-30.31,38.71-30.29h14.41c10.73-.04,20.17-7.08,23.28-17.35,3.8-12.88-3.56-26.41-16.45-30.21-2.22-.65-4.52-.99-6.83-.99h-4.09c-10.34.01-19.54,6.56-22.93,16.33l-5.08,14.65h-22.62l7.54-21.66c6.39-18.34,23.67-30.63,43.09-30.65h4.09c25.2,0,45.62,20.43,45.61,45.63,0,4.41-.64,8.79-1.9,13.02Z"/>
      <path class="cls-3" d="M39.52,118.21C13.71,102.37,2.63,79.38.02,49.72c-.81-14.28,19.52-16.26,21.47-2.08.09,1,.05,2.01-.13,3-1.09,5.83-1.72,11.73-1.86,17.66-.14,5.93.48,11.86,1.85,17.63,2.85,12.06,9.77,23,18.17,32.28Z"/>
      <path class="cls-2" d="M36.16,82.94c-10.14-28.55-4.26-53.38,12.39-78.07,8.35-11.61,25.4-.36,18,11.89-.57.83-1.24,1.58-2,2.23-4.51,3.84-8.7,8.04-12.53,12.56-3.84,4.52-7.08,9.52-9.65,14.87-5.37,11.17-6.86,24-6.17,36.52h-.04Z"/>
      <path class="cls-5" d="M51.32,54.53c16.59-26,35.06-36.75,66-38.86,14.3-.5,15.84,19.88,1.6,21.52-1.02.07-2.05,0-3.06-.21-5.54-1.25-11.17-2.02-16.84-2.29-5.63-.25-11.27.33-16.73,1.74-11.58,2.94-21.8,10.35-30.97,18.1Z"/>
    </g>
  </g>
</svg>